# xmcd CD database file
#
# Track frame offsets:
#	150
#	15480
#	29000
#	52360
#	65047
#	85165
#	98495
#	118060
#	145587
#	154372
#	171637
#	195272
#	208867
#	226370
#	244955
#	265777
#	285275
#	303452
#
# Disc length: 4242 seconds
#
# Revision: 0
# Processed by: cddbd v1.5.2PL0 Copyright (c) Steve Scherf et al.
# Submitted via: CDex 1.51
#
DISCID=05109012
DTITLE=Skip James - Skip James Today! Plus
DYEAR=1900
DGENRE=Blues
TTITLE0=01 HARD TIMES KILLING FLOOR BLUES
TTITLE1=02 CROW JANE
TTITLE2=03 SPECIAL RIDER BLUES
TTITLE3=04 DRUNCKEN SPREE
TTITLE4=05 CHERRYBALL
TTITLE5=06 HOW LONG
TTITLE6=07 CYPRESS GROVE
TTITLE7=08 MAY GAL
TTITLE8=09 I'M SO GLAD
TTITLE9=10 GOOD ROAD CAMP BLUES
TTITLE10=11 DEVIL GOT MY WOMAN
TTITLE11=12 LOOK AT THE PEOPLE STANDING AT THE JUDGEMENT
TTITLE12=13 22.20 BLUES
TTITLE13=14 SICKBED BLUES
TTITLE14=15 CATFISH BLUES
TTITLE15=16 LORENZO BLUES
TTITLE16=17 CARLESS LOVE
TTITLE17=18 ILLINOIS BLUES
EXTD=
EXTT0=
EXTT1=
EXTT2=
EXTT3=
EXTT4=
EXTT5=
EXTT6=
EXTT7=
EXTT8=
EXTT9=
EXTT10=
EXTT11=
EXTT12=
EXTT13=
EXTT14=
EXTT15=
EXTT16=
EXTT17=
PLAYORDER=
